<svg xmlns="http://www.w3.org/2000/svg" width="1200" height="1200" viewBox="0 0 1200 1200" version="1.1"><path d="M 559.500 290.039 C 460.419 295.738, 372.794 333.228, 308.429 397.460 C 269.132 436.676, 241.798 480.481, 223.854 533 C 210.486 572.122, 204.345 607.828, 203.301 652.500 C 201.356 735.746, 222.113 810.398, 265.028 874.500 C 287.293 907.757, 319.301 940.533, 353.338 964.929 C 401.300 999.306, 465.110 1023.454, 529 1031.408 C 636.199 1044.753, 741.079 1020.392, 820.486 963.702 C 842.482 948, 869.785 922.491, 887.210 901.366 C 925.382 855.087, 951.616 797.361, 962.956 734.695 C 968.655 703.200, 968.355 715.439, 968.720 499.755 C 969.094 279.104, 969.673 297.903, 962.329 292.302 L 958.656 289.500 765.578 289.395 C 659.385 289.338, 566.650 289.627, 559.500 290.039 M 566 484.100 C 520.822 489.263, 480.111 512.231, 454.179 547.189 C 436.420 571.130, 425.415 598.331, 420.459 630.534 C 418.380 644.041, 418.079 674.513, 419.892 688 C 425.770 731.735, 441.992 766.106, 469.945 794.051 C 493.467 817.565, 519.534 831.403, 553.074 838.181 C 563.008 840.189, 567.373 840.485, 586.500 840.447 C 606.485 840.408, 609.661 840.158, 621.174 837.712 C 653.771 830.787, 678.745 817.304, 702.070 794.038 C 729.108 767.070, 744.921 734.632, 751.603 692.429 C 753.128 682.799, 753.381 670.569, 753.729 589.556 C 754.170 486.781, 754.483 491.758, 747.239 486.233 L 743.656 483.500 658.578 483.372 C 611.785 483.301, 570.125 483.629, 566 484.100" stroke="none" fill="#c3d304" fill-rule="evenodd"/><path d="M 0 600.001 L 0 1200.002 600.250 1199.751 L 1200.500 1199.500 1200.751 599.750 L 1201.002 0 600.501 0 L 0 0 0 600.001 M 0.497 600.500 C 0.497 930.500, 0.611 1065.649, 0.750 900.832 C 0.889 736.015, 0.889 466.015, 0.750 300.832 C 0.611 135.649, 0.497 270.500, 0.497 600.500 M 559.500 290.039 C 460.419 295.738, 372.794 333.228, 308.429 397.460 C 269.132 436.676, 241.798 480.481, 223.854 533 C 210.486 572.122, 204.345 607.828, 203.301 652.500 C 201.356 735.746, 222.113 810.398, 265.028 874.500 C 287.293 907.757, 319.301 940.533, 353.338 964.929 C 401.300 999.306, 465.110 1023.454, 529 1031.408 C 636.199 1044.753, 741.079 1020.392, 820.486 963.702 C 842.482 948, 869.785 922.491, 887.210 901.366 C 925.382 855.087, 951.616 797.361, 962.956 734.695 C 968.655 703.200, 968.355 715.439, 968.720 499.755 C 969.094 279.104, 969.673 297.903, 962.329 292.302 L 958.656 289.500 765.578 289.395 C 659.385 289.338, 566.650 289.627, 559.500 290.039 M 566 484.100 C 520.822 489.263, 480.111 512.231, 454.179 547.189 C 436.420 571.130, 425.415 598.331, 420.459 630.534 C 418.380 644.041, 418.079 674.513, 419.892 688 C 425.770 731.735, 441.992 766.106, 469.945 794.051 C 493.467 817.565, 519.534 831.403, 553.074 838.181 C 563.008 840.189, 567.373 840.485, 586.500 840.447 C 606.485 840.408, 609.661 840.158, 621.174 837.712 C 653.771 830.787, 678.745 817.304, 702.070 794.038 C 729.108 767.070, 744.921 734.632, 751.603 692.429 C 753.128 682.799, 753.381 670.569, 753.729 589.556 C 754.170 486.781, 754.483 491.758, 747.239 486.233 L 743.656 483.500 658.578 483.372 C 611.785 483.301, 570.125 483.629, 566 484.100" stroke="none" fill="#231b44" fill-rule="evenodd"/></svg>