<svg xmlns="http://www.w3.org/2000/svg" width="495" height="54" viewBox="0 0 495 54" version="1.1"><path d="M 0.687 0.647 C 0.309 1.024, -0 4.135, -0 7.560 C -0 14.662, 0.366 15, 8.060 15 L 12.956 15 13.228 33.750 L 13.500 52.500 21 52.500 L 28.500 52.500 28.772 33.750 L 29.044 15 34.272 14.985 C 41.667 14.963, 42.156 14.438, 41.802 6.909 L 41.500 0.500 21.437 0.230 C 10.402 0.081, 1.065 0.269, 0.687 0.647 M 46.232 0.812 C 45.252 1.452, 45.026 7.401, 45.232 27.070 L 45.500 52.500 53 52.500 L 60.500 52.500 60.788 43.250 L 61.075 34 67.500 34 L 73.925 34 74.212 43.250 L 74.500 52.500 80.837 52.800 C 84.649 52.980, 87.738 52.633, 88.587 51.928 C 90.671 50.198, 90.671 2.802, 88.587 1.072 C 87.738 0.367, 84.649 0.020, 80.837 0.200 L 74.500 0.500 74.212 9.750 L 73.925 19 67.500 19 L 61.075 19 60.788 9.750 L 60.500 0.500 54 0.242 C 50.425 0.100, 46.930 0.357, 46.232 0.812 M 109.500 1.867 C 99.205 6.560, 94.020 14.812, 94.020 26.500 C 94.020 42.579, 104.633 53.132, 120.905 53.234 C 131.383 53.300, 141.389 47.812, 145.658 39.660 C 148.129 34.939, 146.972 34, 138.686 34 C 132.587 34, 130.998 34.345, 129.505 35.994 C 127.324 38.405, 122.200 39.952, 118.649 39.273 C 116.075 38.781, 111 34.529, 111 32.864 C 111 32.389, 119.045 32, 128.878 32 C 143.584 32, 146.977 31.733, 148.006 30.493 C 149.517 28.673, 148.666 20.706, 146.341 14.894 C 144.363 9.950, 136.418 2.741, 131.236 1.189 C 125.207 -0.617, 114.197 -0.274, 109.500 1.867 M 187.500 1.867 C 177.205 6.560, 172.020 14.812, 172.020 26.500 C 172.020 42.844, 182.692 53.222, 199.500 53.222 C 208.025 53.222, 213.957 50.976, 219.153 45.781 C 223.265 41.668, 226.254 35.804, 225.815 32.713 C 225.529 30.701, 224.860 30.474, 218.449 30.210 L 211.399 29.920 208.187 33.917 C 205.995 36.645, 203.898 38.116, 201.585 38.550 C 188.534 40.998, 182.542 21.241, 194.600 15.520 C 199.583 13.155, 204.900 14.692, 208.624 19.573 C 211.289 23.068, 211.327 23.080, 218.400 22.791 L 225.500 22.500 225.405 18.962 C 225.222 12.173, 217.114 3.327, 208.920 0.977 C 203.272 -0.643, 191.977 -0.173, 187.500 1.867 M 289.451 1.268 C 289.183 1.965, 289.085 13.778, 289.232 27.518 L 289.500 52.500 297 52.500 L 304.500 52.500 304.794 45.250 C 305.075 38.315, 305.193 38, 307.524 38 C 309.422 38, 310.608 39.158, 312.899 43.250 C 318.459 53.180, 318.208 53, 326.488 53 C 330.693 53, 334.169 52.535, 334.548 51.923 C 334.914 51.330, 333.126 47.429, 330.575 43.253 L 325.936 35.661 328.848 32.581 C 333.163 28.015, 334.334 25.116, 334.328 19.004 C 334.320 10.145, 329.319 3.294, 321.219 1.044 C 315.635 -0.507, 290.062 -0.326, 289.451 1.268 M 339.451 1.268 C 339.183 1.965, 339.085 13.778, 339.232 27.518 L 339.500 52.500 346.093 52.792 C 350.715 52.997, 353.021 52.679, 353.809 51.730 C 354.463 50.942, 355.052 45.380, 355.217 38.438 L 355.500 26.500 360.343 38.500 C 363.006 45.100, 365.662 51.078, 366.245 51.786 C 367 52.703, 369.911 52.989, 376.402 52.786 L 385.500 52.500 385.500 26.500 L 385.500 0.500 378 0.500 L 370.500 0.500 370 13.779 L 369.500 27.058 364.584 14.779 C 361.880 8.025, 359.238 1.937, 358.712 1.250 C 357.368 -0.506, 340.125 -0.490, 339.451 1.268 M 407.388 1.326 C 391.855 7.185, 385.439 25.499, 393.760 40.227 C 403.006 56.592, 429.023 57.995, 440.084 42.725 C 441.734 40.447, 442.953 37.665, 442.792 36.542 C 442.533 34.729, 441.672 34.467, 435.114 34.203 C 428.877 33.953, 427.399 34.215, 425.614 35.887 C 420.490 40.686, 413.023 40.385, 408.953 35.216 L 406.815 32.500 425.657 32 L 444.500 31.500 444.808 26.681 C 445.451 16.605, 439.955 7.150, 430.805 2.590 C 426.525 0.457, 424.274 0.013, 418.054 0.076 C 413.899 0.118, 409.099 0.680, 407.388 1.326 M 449.484 1.180 C 449.198 1.926, 449.085 13.778, 449.232 27.518 L 449.500 52.500 455.837 52.800 C 464.119 53.192, 465 52.383, 465 44.378 C 465 38.302, 465.114 38, 467.414 38 C 469.357 38, 470.559 39.316, 473.578 44.750 C 475.640 48.462, 477.817 51.831, 478.414 52.235 C 479.011 52.639, 482.762 52.976, 486.750 52.985 C 493.317 52.999, 494 52.813, 494 51.018 C 494 49.927, 492.200 46.094, 490 42.500 C 487.800 38.906, 486 35.700, 486 35.376 C 486 35.053, 487.068 33.948, 488.373 32.921 C 491.893 30.152, 494 24.877, 494 18.833 C 494 12.060, 491.603 7.429, 486.063 3.500 C 481.853 0.514, 481.759 0.498, 465.919 0.162 C 453.212 -0.108, 449.900 0.098, 449.484 1.180 M 114.077 16.589 C 112.385 18.013, 111 19.588, 111 20.089 C 111 20.590, 115.500 21, 121 21 C 127.290 21, 131 20.612, 131 19.955 C 131 19.380, 129.895 17.805, 128.545 16.455 C 125.053 12.962, 118.313 13.025, 114.077 16.589 M 409.673 17.250 L 406.500 20.500 411.713 20.801 C 414.581 20.967, 419.531 20.967, 422.713 20.801 L 428.500 20.500 425.327 17.250 C 422.645 14.503, 421.433 14, 417.500 14 C 413.567 14, 412.355 14.503, 409.673 17.250 M 305 19.550 L 305 24.100 310.646 23.800 C 316.980 23.463, 318.705 21.945, 317.628 17.655 C 317 15.152, 316.620 15, 310.981 15 L 305 15 305 19.550 M 465 19.500 L 465 24 470.300 24 C 475.994 24, 478 22.828, 478 19.500 C 478 16.172, 475.994 15, 470.300 15 L 465 15 465 19.500" stroke="none" fill="#ffffff" fill-rule="evenodd"/><path d="M 248.672 1.420 C 237.202 4.533, 229.707 14.294, 229.578 26.288 C 229.485 34.925, 232.013 40.927, 238.019 46.327 C 249.709 56.837, 269.434 55.319, 278.680 43.198 C 283.344 37.082, 284.089 33.080, 283.776 15.796 L 283.500 0.500 268.500 0.305 C 258.667 0.177, 251.837 0.561, 248.672 1.420 M 251.110 16.396 C 247.722 18.273, 246.076 21.768, 246.035 27.173 C 245.968 36.023, 253.900 41.325, 261.667 37.622 C 266.166 35.476, 268 30.961, 268 22.032 L 268 15 260.750 15.035 C 256.669 15.055, 252.455 15.650, 251.110 16.396" stroke="none" fill="#C1D748" fill-rule="evenodd"/></svg>
